# MagicaVoxel @ ephtracy

# material
mtllib tomate.mtl
usemtl palette

# normals
vn -1 0 0
vn 1 0 0
vn 0 0 1
vn 0 0 -1
vn 0 -1 0
vn 0 1 0

# texcoords
vt 0.849609 0.5
vt 0.853516 0.5
vt 0.896484 0.5

# verts
v -4 0 4
v -4 0 -4
v -4 2 1
v -4 2 -1
v -4 4 1
v -4 4 -1
v -4 5 4
v -4 5 -4
v -1 5 1
v -1 5 -1
v -1 6 1
v -1 6 -1
v 1 5 1
v 1 5 -1
v 1 6 1
v 1 6 -1
v 4 0 4
v 4 0 -4
v 4 5 4
v 4 5 -4
v -4 0 4
v -4 5 4
v -1 3 4
v -1 4 4
v 0 2 4
v 0 3 4
v 0 4 4
v 1 1 4
v 1 2 4
v 1 3 4
v 2 1 4
v 2 2 4
v 4 0 4
v 4 5 4
v -1 5 1
v -1 6 1
v 1 5 1
v 1 6 1
v -1 5 -1
v -1 6 -1
v 1 5 -1
v 1 6 -1
v -4 0 -4
v -4 5 -4
v 4 0 -4
v 4 5 -4
v -4 0 4
v 4 0 4
v -4 0 -4
v 4 0 -4
v -4 5 4
v 4 5 4
v -1 5 1
v 1 5 1
v -1 5 -1
v 1 5 -1
v -4 5 -4
v 4 5 -4
v -1 6 1
v 1 6 1
v -1 6 -1
v 1 6 -1

# faces
f 3/2/1 2/2/1 1/2/1
f 4/2/1 2/2/1 3/2/1
f 5/2/1 3/2/1 1/2/1
f 5/1/1 4/1/1 3/1/1
f 6/2/1 2/2/1 4/2/1
f 6/1/1 4/1/1 5/1/1
f 7/2/1 5/2/1 1/2/1
f 7/2/1 6/2/1 5/2/1
f 8/2/1 2/2/1 6/2/1
f 8/2/1 6/2/1 7/2/1
f 11/3/1 10/3/1 9/3/1
f 12/3/1 10/3/1 11/3/1
f 13/3/2 14/3/2 15/3/2
f 15/3/2 14/3/2 16/3/2
f 17/2/2 18/2/2 19/2/2
f 19/2/2 18/2/2 20/2/2
f 23/2/3 22/2/3 21/2/3
f 24/2/3 22/2/3 23/2/3
f 25/2/3 23/2/3 21/2/3
f 26/1/3 24/1/3 23/1/3
f 26/2/3 23/2/3 25/2/3
f 27/2/3 22/2/3 24/2/3
f 27/1/3 24/1/3 26/1/3
f 28/2/3 25/2/3 21/2/3
f 29/1/3 26/1/3 25/1/3
f 29/2/3 25/2/3 28/2/3
f 30/2/3 27/2/3 26/2/3
f 30/1/3 26/1/3 29/1/3
f 31/2/3 28/2/3 21/2/3
f 31/1/3 29/1/3 28/1/3
f 32/2/3 30/2/3 29/2/3
f 32/1/3 29/1/3 31/1/3
f 33/2/3 31/2/3 21/2/3
f 33/2/3 32/2/3 31/2/3
f 34/2/3 27/2/3 30/2/3
f 34/2/3 32/2/3 33/2/3
f 34/2/3 22/2/3 27/2/3
f 34/2/3 30/2/3 32/2/3
f 37/3/3 36/3/3 35/3/3
f 38/3/3 36/3/3 37/3/3
f 39/3/4 40/3/4 41/3/4
f 41/3/4 40/3/4 42/3/4
f 43/2/4 44/2/4 45/2/4
f 45/2/4 44/2/4 46/2/4
f 49/2/5 48/2/5 47/2/5
f 50/2/5 48/2/5 49/2/5
f 51/2/6 52/2/6 53/2/6
f 53/2/6 52/2/6 54/2/6
f 51/2/6 53/2/6 55/2/6
f 54/2/6 52/2/6 56/2/6
f 51/2/6 55/2/6 57/2/6
f 55/2/6 56/2/6 57/2/6
f 56/2/6 52/2/6 58/2/6
f 57/2/6 56/2/6 58/2/6
f 59/3/6 60/3/6 61/3/6
f 61/3/6 60/3/6 62/3/6
