# MagicaVoxel @ ephtracy

# material
mtllib avore.mtl
usemtl palette

# normals
vn -1 0 0
vn 1 0 0
vn 0 0 1
vn 0 0 -1
vn 0 -1 0
vn 0 1 0

# texcoords
vt 0.537109 0.5
vt 0.892578 0.5
vt 0.900391 0.5

# verts
v -7 9 7
v -7 9 -7
v -7 10 7
v -7 10 -7
v -7 15 7
v -7 15 -7
v -7 16 7
v -7 16 -7
v -7 21 7
v -7 21 -7
v -7 22 7
v -7 22 -7
v -7 27 7
v -7 27 -7
v -7 28 7
v -7 28 -7
v -7 33 7
v -7 33 -7
v -4 0 4
v -4 0 -4
v -4 9 4
v -4 9 -4
v -4 33 4
v -4 33 -4
v -4 34 4
v -4 34 -4
v -2 34 2
v -2 34 -2
v -2 35 2
v -2 35 -2
v -1 35 1
v -1 35 -1
v -1 36 1
v -1 36 -1
v 0 5 -4
v 0 5 -6
v 0 7 -4
v 0 7 -6
v 1 5 -4
v 1 5 -5
v 1 7 -4
v 1 7 -5
v 1 35 1
v 1 35 -1
v 1 36 1
v 1 36 -1
v 2 5 -5
v 2 5 -6
v 2 7 -5
v 2 7 -6
v 2 34 2
v 2 34 -2
v 2 35 2
v 2 35 -2
v 4 0 4
v 4 0 -4
v 4 9 4
v 4 9 -4
v 4 33 4
v 4 33 -4
v 4 34 4
v 4 34 -4
v 7 9 7
v 7 9 -7
v 7 10 7
v 7 10 -7
v 7 15 7
v 7 15 -7
v 7 16 7
v 7 16 -7
v 7 21 7
v 7 21 -7
v 7 22 7
v 7 22 -7
v 7 27 7
v 7 27 -7
v 7 28 7
v 7 28 -7
v 7 33 7
v 7 33 -7
v -7 9 7
v -7 10 7
v -7 15 7
v -7 16 7
v -7 21 7
v -7 22 7
v -7 27 7
v -7 28 7
v -7 33 7
v 7 9 7
v 7 10 7
v 7 15 7
v 7 16 7
v 7 21 7
v 7 22 7
v 7 27 7
v 7 28 7
v 7 33 7
v -4 0 4
v -4 9 4
v -4 33 4
v -4 34 4
v 4 0 4
v 4 9 4
v 4 33 4
v 4 34 4
v -2 34 2
v -2 35 2
v 2 34 2
v 2 35 2
v -1 35 1
v -1 36 1
v 1 35 1
v 1 36 1
v 1 5 -5
v 1 7 -5
v 2 5 -5
v 2 7 -5
v -1 35 -1
v -1 36 -1
v 1 35 -1
v 1 36 -1
v -2 34 -2
v -2 35 -2
v 2 34 -2
v 2 35 -2
v -4 0 -4
v -4 9 -4
v -4 33 -4
v -4 34 -4
v 0 5 -4
v 0 7 -4
v 1 5 -4
v 1 7 -4
v 4 0 -4
v 4 9 -4
v 4 33 -4
v 4 34 -4
v 0 5 -6
v 0 7 -6
v 2 5 -6
v 2 7 -6
v -7 9 -7
v -7 10 -7
v -7 15 -7
v -7 16 -7
v -7 21 -7
v -7 22 -7
v -7 27 -7
v -7 28 -7
v -7 33 -7
v 7 9 -7
v 7 10 -7
v 7 15 -7
v 7 16 -7
v 7 21 -7
v 7 22 -7
v 7 27 -7
v 7 28 -7
v 7 33 -7
v -4 0 4
v 4 0 4
v -4 0 -4
v 4 0 -4
v 0 5 -4
v 1 5 -4
v 1 5 -5
v 2 5 -5
v 0 5 -6
v 2 5 -6
v -7 9 7
v 7 9 7
v -4 9 4
v 4 9 4
v -4 9 -4
v 4 9 -4
v -7 9 -7
v 7 9 -7
v 0 7 -4
v 1 7 -4
v 1 7 -5
v 2 7 -5
v 0 7 -6
v 2 7 -6
v -7 33 7
v 7 33 7
v -4 33 4
v 4 33 4
v -4 33 -4
v 4 33 -4
v -7 33 -7
v 7 33 -7
v -4 34 4
v 4 34 4
v -2 34 2
v 2 34 2
v -2 34 -2
v 2 34 -2
v -4 34 -4
v 4 34 -4
v -2 35 2
v 2 35 2
v -1 35 1
v 1 35 1
v -1 35 -1
v 1 35 -1
v -2 35 -2
v 2 35 -2
v -1 36 1
v 1 36 1
v -1 36 -1
v 1 36 -1

# faces
f 3/3/1 2/3/1 1/3/1
f 4/3/1 2/3/1 3/3/1
f 5/2/1 4/2/1 3/2/1
f 6/2/1 4/2/1 5/2/1
f 7/3/1 6/3/1 5/3/1
f 8/3/1 6/3/1 7/3/1
f 9/2/1 8/2/1 7/2/1
f 10/2/1 8/2/1 9/2/1
f 11/3/1 10/3/1 9/3/1
f 12/3/1 10/3/1 11/3/1
f 13/2/1 12/2/1 11/2/1
f 14/2/1 12/2/1 13/2/1
f 15/3/1 14/3/1 13/3/1
f 16/3/1 14/3/1 15/3/1
f 17/2/1 16/2/1 15/2/1
f 18/2/1 16/2/1 17/2/1
f 21/1/1 20/1/1 19/1/1
f 22/1/1 20/1/1 21/1/1
f 25/3/1 24/3/1 23/3/1
f 26/3/1 24/3/1 25/3/1
f 29/3/1 28/3/1 27/3/1
f 30/3/1 28/3/1 29/3/1
f 33/3/1 32/3/1 31/3/1
f 34/3/1 32/3/1 33/3/1
f 37/1/1 36/1/1 35/1/1
f 38/1/1 36/1/1 37/1/1
f 39/1/2 40/1/2 41/1/2
f 41/1/2 40/1/2 42/1/2
f 43/3/2 44/3/2 45/3/2
f 45/3/2 44/3/2 46/3/2
f 47/1/2 48/1/2 49/1/2
f 49/1/2 48/1/2 50/1/2
f 51/3/2 52/3/2 53/3/2
f 53/3/2 52/3/2 54/3/2
f 55/1/2 56/1/2 57/1/2
f 57/1/2 56/1/2 58/1/2
f 59/3/2 60/3/2 61/3/2
f 61/3/2 60/3/2 62/3/2
f 63/3/2 64/3/2 65/3/2
f 65/3/2 64/3/2 66/3/2
f 65/2/2 66/2/2 67/2/2
f 67/2/2 66/2/2 68/2/2
f 67/3/2 68/3/2 69/3/2
f 69/3/2 68/3/2 70/3/2
f 69/2/2 70/2/2 71/2/2
f 71/2/2 70/2/2 72/2/2
f 71/3/2 72/3/2 73/3/2
f 73/3/2 72/3/2 74/3/2
f 73/2/2 74/2/2 75/2/2
f 75/2/2 74/2/2 76/2/2
f 75/3/2 76/3/2 77/3/2
f 77/3/2 76/3/2 78/3/2
f 77/2/2 78/2/2 79/2/2
f 79/2/2 78/2/2 80/2/2
f 90/3/3 82/3/3 81/3/3
f 91/2/3 83/2/3 82/2/3
f 91/3/3 82/3/3 90/3/3
f 92/3/3 84/3/3 83/3/3
f 92/2/3 83/2/3 91/2/3
f 93/2/3 85/2/3 84/2/3
f 93/3/3 84/3/3 92/3/3
f 94/3/3 86/3/3 85/3/3
f 94/2/3 85/2/3 93/2/3
f 95/2/3 87/2/3 86/2/3
f 95/3/3 86/3/3 94/3/3
f 96/3/3 88/3/3 87/3/3
f 96/2/3 87/2/3 95/2/3
f 97/2/3 89/2/3 88/2/3
f 97/3/3 88/3/3 96/3/3
f 98/2/3 89/2/3 97/2/3
f 103/1/3 100/1/3 99/1/3
f 104/1/3 100/1/3 103/1/3
f 105/3/3 102/3/3 101/3/3
f 106/3/3 102/3/3 105/3/3
f 109/3/3 108/3/3 107/3/3
f 110/3/3 108/3/3 109/3/3
f 113/3/3 112/3/3 111/3/3
f 114/3/3 112/3/3 113/3/3
f 117/1/3 116/1/3 115/1/3
f 118/1/3 116/1/3 117/1/3
f 119/3/4 120/3/4 121/3/4
f 121/3/4 120/3/4 122/3/4
f 123/3/4 124/3/4 125/3/4
f 125/3/4 124/3/4 126/3/4
f 127/1/4 128/1/4 131/1/4
f 131/1/4 128/1/4 132/1/4
f 127/1/4 131/1/4 133/1/4
f 132/1/4 128/1/4 134/1/4
f 127/1/4 133/1/4 135/1/4
f 133/1/4 134/1/4 135/1/4
f 134/1/4 128/1/4 136/1/4
f 135/1/4 134/1/4 136/1/4
f 129/3/4 130/3/4 137/3/4
f 137/3/4 130/3/4 138/3/4
f 139/1/4 140/1/4 141/1/4
f 141/1/4 140/1/4 142/1/4
f 143/3/4 144/3/4 152/3/4
f 144/2/4 145/2/4 153/2/4
f 152/3/4 144/3/4 153/3/4
f 145/3/4 146/3/4 154/3/4
f 153/2/4 145/2/4 154/2/4
f 146/2/4 147/2/4 155/2/4
f 154/3/4 146/3/4 155/3/4
f 147/3/4 148/3/4 156/3/4
f 155/2/4 147/2/4 156/2/4
f 148/2/4 149/2/4 157/2/4
f 156/3/4 148/3/4 157/3/4
f 149/3/4 150/3/4 158/3/4
f 157/2/4 149/2/4 158/2/4
f 150/2/4 151/2/4 159/2/4
f 158/3/4 150/3/4 159/3/4
f 159/2/4 151/2/4 160/2/4
f 163/1/5 162/1/5 161/1/5
f 164/1/5 162/1/5 163/1/5
f 167/1/5 166/1/5 165/1/5
f 169/1/5 167/1/5 165/1/5
f 169/1/5 168/1/5 167/1/5
f 170/1/5 168/1/5 169/1/5
f 173/3/5 172/3/5 171/3/5
f 174/3/5 172/3/5 173/3/5
f 175/3/5 173/3/5 171/3/5
f 176/3/5 172/3/5 174/3/5
f 177/3/5 175/3/5 171/3/5
f 177/3/5 176/3/5 175/3/5
f 178/3/5 172/3/5 176/3/5
f 178/3/5 176/3/5 177/3/5
f 179/1/6 180/1/6 181/1/6
f 179/1/6 181/1/6 183/1/6
f 181/1/6 182/1/6 183/1/6
f 183/1/6 182/1/6 184/1/6
f 185/2/6 186/2/6 187/2/6
f 187/2/6 186/2/6 188/2/6
f 185/2/6 187/2/6 189/2/6
f 188/2/6 186/2/6 190/2/6
f 185/2/6 189/2/6 191/2/6
f 189/2/6 190/2/6 191/2/6
f 190/2/6 186/2/6 192/2/6
f 191/2/6 190/2/6 192/2/6
f 193/3/6 194/3/6 195/3/6
f 195/3/6 194/3/6 196/3/6
f 193/3/6 195/3/6 197/3/6
f 196/3/6 194/3/6 198/3/6
f 193/3/6 197/3/6 199/3/6
f 197/3/6 198/3/6 199/3/6
f 198/3/6 194/3/6 200/3/6
f 199/3/6 198/3/6 200/3/6
f 201/3/6 202/3/6 203/3/6
f 203/3/6 202/3/6 204/3/6
f 201/3/6 203/3/6 205/3/6
f 204/3/6 202/3/6 206/3/6
f 201/3/6 205/3/6 207/3/6
f 205/3/6 206/3/6 207/3/6
f 206/3/6 202/3/6 208/3/6
f 207/3/6 206/3/6 208/3/6
f 209/3/6 210/3/6 211/3/6
f 211/3/6 210/3/6 212/3/6
