# MagicaVoxel @ Ephtracy

# material
mtllib estradaSimples.mtl
usemtl palette

# normals
vn -1 0 0
vn 1 0 0
vn 0 0 1
vn 0 0 -1
vn 0 -1 0
vn 0 1 0

# texcoords
vt 0.958984 0.5
vt 0.978516 0.5
vt 0.986328 0.5

# verts
v -10 0 10
v -10 0 -10
v -10 19 10
v -10 19 -10
v -10 20 10
v -10 20 -10
v 10 0 10
v 10 0 -10
v 10 19 10
v 10 19 9
v 10 19 -9
v 10 19 -10
v 10 20 10
v 10 20 9
v 10 20 -9
v 10 20 -10
v -10 0 10
v -10 19 10
v -10 20 10
v 10 0 10
v 10 19 10
v 10 20 10
v -10 0 -10
v -10 19 -10
v -10 20 -10
v 10 0 -10
v 10 19 -10
v 10 20 -10
v -10 0 10
v 10 0 10
v -10 0 -10
v 10 0 -10
v -10 20 10
v 10 20 10
v -9 20 9
v -6 20 9
v -3 20 9
v 10 20 9
v 2 20 8
v 8 20 8
v -8 20 7
v -6 20 7
v -3 20 7
v -1 20 7
v -8 20 6
v -1 20 6
v -4 20 4
v -2 20 4
v 2 20 4
v 8 20 4
v -6 20 1
v -4 20 1
v 5 20 1
v 8 20 1
v -6 20 -1
v -4 20 -1
v -8 20 -3
v -6 20 -3
v -4 20 -3
v -2 20 -3
v -1 20 -4
v 1 20 -4
v -8 20 -6
v -6 20 -6
v -1 20 -6
v 1 20 -6
v 5 20 -7
v 8 20 -7
v -6 20 -8
v -3 20 -8
v -9 20 -9
v -6 20 -9
v -3 20 -9
v 10 20 -9
v -10 20 -10
v 10 20 -10

# faces
f 3/2/1 2/2/1 1/2/1
f 4/2/1 2/2/1 3/2/1
f 5/1/1 4/1/1 3/1/1
f 6/1/1 4/1/1 5/1/1
f 7/2/2 8/2/2 9/2/2
f 9/2/2 8/2/2 10/2/2
f 10/2/2 8/2/2 11/2/2
f 11/2/2 8/2/2 12/2/2
f 9/1/2 10/1/2 13/1/2
f 10/2/2 11/2/2 14/2/2
f 13/1/2 10/1/2 14/1/2
f 11/1/2 12/1/2 15/1/2
f 14/2/2 11/2/2 15/2/2
f 15/1/2 12/1/2 16/1/2
f 20/2/3 18/2/3 17/2/3
f 21/1/3 19/1/3 18/1/3
f 21/2/3 18/2/3 20/2/3
f 22/1/3 19/1/3 21/1/3
f 23/2/4 24/2/4 26/2/4
f 24/1/4 25/1/4 27/1/4
f 26/2/4 24/2/4 27/2/4
f 27/1/4 25/1/4 28/1/4
f 31/2/5 30/2/5 29/2/5
f 32/2/5 30/2/5 31/2/5
f 33/1/6 34/1/6 35/1/6
f 35/1/6 34/1/6 36/1/6
f 36/1/6 34/1/6 37/1/6
f 37/1/6 34/1/6 38/1/6
f 37/2/6 38/2/6 39/2/6
f 39/2/6 38/2/6 40/2/6
f 35/2/6 36/2/6 41/2/6
f 36/3/6 37/3/6 42/3/6
f 41/2/6 36/2/6 42/2/6
f 37/2/6 39/2/6 43/2/6
f 42/3/6 37/3/6 43/3/6
f 43/2/6 39/2/6 44/2/6
f 35/2/6 41/2/6 45/2/6
f 41/3/6 42/3/6 45/3/6
f 43/3/6 44/3/6 45/3/6
f 42/3/6 43/3/6 45/3/6
f 44/2/6 39/2/6 46/2/6
f 45/3/6 44/3/6 46/3/6
f 45/2/6 46/2/6 47/2/6
f 47/2/6 46/2/6 48/2/6
f 39/3/6 40/3/6 49/3/6
f 48/2/6 46/2/6 49/2/6
f 46/2/6 39/2/6 49/2/6
f 40/2/6 38/2/6 50/2/6
f 49/3/6 40/3/6 50/3/6
f 45/2/6 47/2/6 51/2/6
f 47/3/6 48/3/6 52/3/6
f 51/2/6 47/2/6 52/2/6
f 48/2/6 49/2/6 53/2/6
f 49/2/6 50/2/6 53/2/6
f 50/2/6 38/2/6 54/2/6
f 53/2/6 50/2/6 54/2/6
f 45/2/6 51/2/6 55/2/6
f 51/3/6 52/3/6 55/3/6
f 52/3/6 48/3/6 56/3/6
f 55/3/6 52/3/6 56/3/6
f 45/2/6 55/2/6 57/2/6
f 35/2/6 45/2/6 57/2/6
f 55/2/6 56/2/6 57/2/6
f 57/2/6 56/2/6 58/2/6
f 56/3/6 48/3/6 59/3/6
f 58/2/6 56/2/6 59/2/6
f 48/2/6 53/2/6 60/2/6
f 59/3/6 48/3/6 60/3/6
f 58/2/6 59/2/6 61/2/6
f 60/2/6 53/2/6 61/2/6
f 59/2/6 60/2/6 61/2/6
f 61/2/6 53/2/6 62/2/6
f 57/3/6 58/3/6 63/3/6
f 35/2/6 57/2/6 63/2/6
f 58/2/6 61/2/6 64/2/6
f 63/3/6 58/3/6 64/3/6
f 61/3/6 62/3/6 65/3/6
f 64/2/6 61/2/6 65/2/6
f 62/2/6 53/2/6 66/2/6
f 65/3/6 62/3/6 66/3/6
f 64/2/6 65/2/6 67/2/6
f 66/2/6 53/2/6 67/2/6
f 65/2/6 66/2/6 67/2/6
f 53/3/6 54/3/6 67/3/6
f 63/2/6 64/2/6 67/2/6
f 54/2/6 38/2/6 68/2/6
f 67/3/6 54/3/6 68/3/6
f 63/2/6 67/2/6 69/2/6
f 67/2/6 68/2/6 69/2/6
f 69/2/6 68/2/6 70/2/6
f 33/1/6 35/1/6 71/1/6
f 35/2/6 63/2/6 71/2/6
f 63/2/6 69/2/6 71/2/6
f 69/3/6 70/3/6 72/3/6
f 71/2/6 69/2/6 72/2/6
f 70/2/6 68/2/6 73/2/6
f 72/3/6 70/3/6 73/3/6
f 68/2/6 38/2/6 74/2/6
f 73/2/6 68/2/6 74/2/6
f 71/1/6 72/1/6 75/1/6
f 33/1/6 71/1/6 75/1/6
f 73/1/6 74/1/6 75/1/6
f 72/1/6 73/1/6 75/1/6
f 75/1/6 74/1/6 76/1/6
